<svg xmlns="http://www.w3.org/2000/svg" xmlns:xlink="http://www.w3.org/1999/xlink" width="2000" zoomAndPan="magnify" viewBox="0 0 1500 1499.999933" height="2000" preserveAspectRatio="xMidYMid meet" version="1.0"><defs><g/><clipPath id="4f36b41023"><rect x="0" width="1052" y="0" height="321"/></clipPath><clipPath id="b985fa913a"><path d="M 1126.796875 796.492188 L 1187.398438 796.492188 L 1187.398438 857.09375 L 1126.796875 857.09375 Z M 1126.796875 796.492188 " clip-rule="nonzero"/></clipPath><clipPath id="3c7e6ffea2"><path d="M 1157.097656 796.492188 C 1140.363281 796.492188 1126.796875 810.058594 1126.796875 826.792969 C 1126.796875 843.527344 1140.363281 857.09375 1157.097656 857.09375 C 1173.832031 857.09375 1187.398438 843.527344 1187.398438 826.792969 C 1187.398438 810.058594 1173.832031 796.492188 1157.097656 796.492188 Z M 1157.097656 796.492188 " clip-rule="nonzero"/></clipPath><clipPath id="87789e7e6e"><path d="M 0.796875 0.492188 L 61.398438 0.492188 L 61.398438 61.09375 L 0.796875 61.09375 Z M 0.796875 0.492188 " clip-rule="nonzero"/></clipPath><clipPath id="4935c9a2aa"><path d="M 31.097656 0.492188 C 14.363281 0.492188 0.796875 14.058594 0.796875 30.792969 C 0.796875 47.527344 14.363281 61.09375 31.097656 61.09375 C 47.832031 61.09375 61.398438 47.527344 61.398438 30.792969 C 61.398438 14.058594 47.832031 0.492188 31.097656 0.492188 Z M 31.097656 0.492188 " clip-rule="nonzero"/></clipPath><clipPath id="bcafd70486"><rect x="0" width="62" y="0" height="62"/></clipPath></defs><g transform="matrix(1, 0, 0, 1, 206, 605)"><g clip-path="url(#4f36b41023)"><g fill="#1b1b1b" fill-opacity="1"><g transform="translate(7.192323, 250.451031)"><g><path d="M 212.9375 -195.03125 C 212.9375 -194.175781 212.507812 -193.320312 211.65625 -192.46875 C 208.238281 -188.414062 204.664062 -184.414062 200.9375 -180.46875 C 197.207031 -176.53125 193.53125 -172.535156 189.90625 -168.484375 C 189.488281 -168.066406 188.957031 -167.585938 188.3125 -167.046875 C 187.675781 -166.515625 186.929688 -166.035156 186.078125 -165.609375 C 183.941406 -164.972656 181.488281 -166.039062 178.71875 -168.8125 C 175.945312 -171.582031 173.816406 -173.609375 172.328125 -174.890625 C 165.296875 -180.003906 157.835938 -184.265625 149.953125 -187.671875 C 142.066406 -191.085938 133.644531 -192.796875 124.6875 -192.796875 L 123.734375 -192.796875 C 106.679688 -192.578125 91.8125 -187.9375 79.125 -178.875 C 66.445312 -169.820312 57.226562 -157.300781 51.46875 -141.3125 C 48.914062 -134.28125 47.851562 -126.550781 48.28125 -118.125 C 48.707031 -109.707031 50.359375 -101.394531 53.234375 -93.1875 C 56.109375 -84.988281 59.992188 -77.53125 64.890625 -70.8125 C 69.796875 -64.101562 75.445312 -58.722656 81.84375 -54.671875 C 93.144531 -47.640625 106.363281 -44.125 121.5 -44.125 C 132.15625 -44.125 141.851562 -45.828125 150.59375 -49.234375 C 159.332031 -52.648438 166.472656 -57.445312 172.015625 -63.625 C 174.992188 -67.25 177.757812 -69.539062 180.3125 -70.5 C 182.875 -71.457031 185.96875 -70.234375 189.59375 -66.828125 C 193 -63.628906 196.25 -60.269531 199.34375 -56.75 C 202.4375 -53.226562 205.367188 -49.660156 208.140625 -46.046875 C 208.566406 -45.191406 209.046875 -44.390625 209.578125 -43.640625 C 210.109375 -42.890625 210.476562 -41.984375 210.6875 -40.921875 C 211.539062 -37.722656 210.472656 -34.738281 207.484375 -31.96875 C 204.503906 -29.195312 201.039062 -26.796875 197.09375 -24.765625 C 193.15625 -22.742188 190.125 -21.097656 188 -19.828125 C 178.1875 -13.640625 167.421875 -8.835938 155.703125 -5.421875 C 143.984375 -2.015625 131.832031 -0.3125 119.25 -0.3125 C 102.414062 -0.3125 87.441406 -2.765625 74.328125 -7.671875 C 61.222656 -12.578125 50.035156 -19.023438 40.765625 -27.015625 C 31.492188 -35.003906 23.925781 -43.738281 18.0625 -53.21875 C 12.195312 -62.707031 7.988281 -72.144531 5.4375 -81.53125 C -0.101562 -101.78125 -1.332031 -121.441406 1.75 -140.515625 C 4.84375 -159.585938 12.144531 -176.585938 23.65625 -191.515625 C 34.53125 -206.003906 48.171875 -217.242188 64.578125 -225.234375 C 80.992188 -233.234375 98.582031 -237.234375 117.34375 -237.234375 L 118.296875 -237.234375 C 131.941406 -237.234375 145.316406 -235.367188 158.421875 -231.640625 C 171.523438 -227.910156 183.617188 -221.992188 194.703125 -213.890625 C 196.410156 -212.609375 198.648438 -210.957031 201.421875 -208.9375 C 204.191406 -206.914062 206.75 -204.726562 209.09375 -202.375 C 211.4375 -200.03125 212.71875 -197.582031 212.9375 -195.03125 Z M 212.9375 -195.03125 "/></g></g></g><g fill="#1b1b1b" fill-opacity="1"><g transform="translate(220.735701, 250.451031)"><g><path d="M 0.3125 -92.71875 C 0.101562 -104.65625 2.445312 -116.535156 7.34375 -128.359375 C 12.25 -140.191406 19.070312 -150.585938 27.8125 -159.546875 C 36.125 -168.066406 45.609375 -174.5625 56.265625 -179.03125 C 66.921875 -183.507812 77.898438 -185.75 89.203125 -185.75 C 90.265625 -185.75 91.378906 -185.75 92.546875 -185.75 C 93.722656 -185.75 94.847656 -185.75 95.921875 -185.75 C 95.921875 -185.75 95.972656 -185.75 96.078125 -185.75 C 96.179688 -185.75 96.234375 -185.75 96.234375 -185.75 C 114.773438 -185.75 131.132812 -181.910156 145.3125 -174.234375 C 159.488281 -166.566406 170.625 -155.910156 178.71875 -142.265625 C 186.820312 -128.628906 190.875 -112.859375 190.875 -94.953125 C 190.875 -67.035156 182.132812 -44.335938 164.65625 -26.859375 C 156.125 -18.328125 145.941406 -11.769531 134.109375 -7.1875 C 122.285156 -2.601562 109.445312 -0.3125 95.59375 -0.3125 C 82.375 -0.3125 70.0625 -2.707031 58.65625 -7.5 C 47.257812 -12.300781 37.242188 -18.910156 28.609375 -27.328125 C 19.984375 -35.753906 13.164062 -45.5625 8.15625 -56.75 C 3.144531 -67.9375 0.53125 -79.925781 0.3125 -92.71875 Z M 94.640625 -147.703125 C 87.179688 -147.703125 79.929688 -145.304688 72.890625 -140.515625 C 65.859375 -135.722656 60.050781 -129.539062 55.46875 -121.96875 C 50.882812 -114.40625 48.488281 -106.46875 48.28125 -98.15625 C 48.0625 -88.988281 49.550781 -80.140625 52.75 -71.609375 C 55.945312 -63.085938 60.847656 -55.945312 67.453125 -50.1875 C 74.066406 -44.4375 82.273438 -41.03125 92.078125 -39.96875 C 102.953125 -38.894531 112.117188 -40.597656 119.578125 -45.078125 C 127.035156 -49.554688 132.789062 -55.6875 136.84375 -63.46875 C 140.894531 -71.25 143.128906 -79.773438 143.546875 -89.046875 C 143.972656 -98.316406 142.585938 -107.210938 139.390625 -115.734375 C 136.203125 -124.265625 131.085938 -131.457031 124.046875 -137.3125 C 117.015625 -143.175781 108.0625 -146.640625 97.1875 -147.703125 C 96.769531 -147.703125 96.347656 -147.703125 95.921875 -147.703125 C 95.492188 -147.703125 95.066406 -147.703125 94.640625 -147.703125 Z M 94.640625 -147.703125 "/></g></g></g><g fill="#1b1b1b" fill-opacity="1"><g transform="translate(412.220977, 250.451031)"><g><path d="M 99.4375 -141.640625 C 98.363281 -140.992188 97.132812 -140.507812 95.75 -140.1875 C 94.363281 -139.875 93.035156 -139.503906 91.765625 -139.078125 C 89.421875 -138.867188 86.96875 -138.707031 84.40625 -138.59375 C 81.84375 -138.488281 79.390625 -138.117188 77.046875 -137.484375 C 71.929688 -135.984375 67.5625 -133.257812 63.9375 -129.3125 C 60.320312 -125.375 57.550781 -120.957031 55.625 -116.0625 C 52.007812 -106.25 49.71875 -95.585938 48.75 -84.078125 C 47.789062 -72.578125 47.472656 -60.960938 47.796875 -49.234375 C 48.117188 -37.515625 48.171875 -26.429688 47.953125 -15.984375 L 47.953125 -11.1875 C 47.953125 -7.132812 46.40625 -4.304688 43.3125 -2.703125 C 40.226562 -1.109375 36.5 -0.257812 32.125 -0.15625 C 27.757812 -0.0507812 23.5 -0.210938 19.34375 -0.640625 C 15.1875 -1.066406 11.9375 -1.382812 9.59375 -1.59375 C 7.457031 -1.59375 5.859375 -2.019531 4.796875 -2.875 C 2.878906 -4.15625 1.648438 -6.609375 1.109375 -10.234375 C 0.578125 -13.859375 0.3125 -17.90625 0.3125 -22.375 C 0.3125 -26.851562 0.472656 -31.117188 0.796875 -35.171875 C 1.117188 -39.222656 1.28125 -42.207031 1.28125 -44.125 C 1.707031 -51.582031 2.132812 -59.039062 2.5625 -66.5 C 2.988281 -73.957031 3.203125 -81.414062 3.203125 -88.875 C 3.203125 -103.375 3.203125 -117.921875 3.203125 -132.515625 C 3.203125 -147.117188 3.203125 -161.773438 3.203125 -176.484375 C 3.203125 -180.109375 4.050781 -182.398438 5.75 -183.359375 C 7.457031 -184.316406 9.585938 -184.6875 12.140625 -184.46875 C 14.703125 -184.257812 17.265625 -184.265625 19.828125 -184.484375 C 24.296875 -185.117188 28.664062 -185.4375 32.9375 -185.4375 C 41.675781 -185.4375 48.390625 -182.664062 53.078125 -177.125 C 54.773438 -175.207031 56.90625 -174.25 59.46875 -174.25 C 60.320312 -174.25 61.066406 -174.351562 61.703125 -174.5625 C 64.472656 -174.78125 67.773438 -175.738281 71.609375 -177.4375 C 75.453125 -179.144531 79.453125 -180.796875 83.609375 -182.390625 C 87.765625 -183.992188 91.65625 -185.0625 95.28125 -185.59375 C 98.90625 -186.125 101.890625 -185.484375 104.234375 -183.671875 C 106.578125 -181.859375 107.75 -178.179688 107.75 -172.640625 C 107.75 -169.867188 107.691406 -167.046875 107.578125 -164.171875 C 107.472656 -161.296875 107.316406 -158.472656 107.109375 -155.703125 C 106.890625 -154.210938 106.671875 -152.613281 106.453125 -150.90625 C 106.242188 -149.195312 105.609375 -147.707031 104.546875 -146.4375 C 103.265625 -144.09375 101.5625 -142.492188 99.4375 -141.640625 Z M 99.4375 -141.640625 "/></g></g></g><g fill="#1b1b1b" fill-opacity="1"><g transform="translate(520.588834, 250.451031)"><g><path d="M 179.359375 -81.203125 C 176.804688 -79.078125 173.023438 -77.640625 168.015625 -76.890625 C 163.003906 -76.140625 157.671875 -75.765625 152.015625 -75.765625 C 146.367188 -75.765625 141.09375 -75.867188 136.1875 -76.078125 C 131.289062 -76.296875 127.566406 -76.40625 125.015625 -76.40625 C 113.929688 -76.195312 102.953125 -76.035156 92.078125 -75.921875 C 81.203125 -75.816406 70.222656 -75.765625 59.140625 -75.765625 C 55.734375 -75.765625 53.550781 -74.695312 52.59375 -72.5625 C 51.632812 -70.4375 51.523438 -68.039062 52.265625 -65.375 C 53.015625 -62.71875 54.03125 -60.429688 55.3125 -58.515625 C 59.789062 -52.753906 65.382812 -48.113281 72.09375 -44.59375 C 78.8125 -41.082031 85.789062 -38.898438 93.03125 -38.046875 C 101.132812 -37.191406 107.90625 -38.3125 113.34375 -41.40625 C 118.78125 -44.5 124.90625 -47.75 131.71875 -51.15625 C 134.914062 -52.863281 137.097656 -53.925781 138.265625 -54.34375 C 139.441406 -54.769531 141.414062 -53.8125 144.1875 -51.46875 C 147.175781 -49.125 150 -45.925781 152.65625 -41.875 C 155.320312 -37.832031 157.9375 -34.316406 160.5 -31.328125 C 163.269531 -27.703125 163.160156 -24.289062 160.171875 -21.09375 C 157.191406 -17.90625 152.609375 -14.976562 146.421875 -12.3125 C 140.242188 -9.644531 133.53125 -7.351562 126.28125 -5.4375 C 119.039062 -3.519531 112.488281 -2.023438 106.625 -0.953125 C 100.757812 0.109375 96.765625 0.640625 94.640625 0.640625 C 80.359375 0.640625 67.195312 -2.179688 55.15625 -7.828125 C 43.113281 -13.484375 32.828125 -21.160156 24.296875 -30.859375 C 15.773438 -40.554688 9.378906 -51.476562 5.109375 -63.625 C 0.847656 -75.769531 -0.800781 -88.503906 0.15625 -101.828125 C 1.113281 -115.148438 5.21875 -128.097656 12.46875 -140.671875 C 18.007812 -150.484375 25.414062 -158.796875 34.6875 -165.609375 C 43.957031 -172.429688 54.1875 -177.492188 65.375 -180.796875 C 76.570312 -184.097656 88.03125 -185.585938 99.75 -185.265625 C 111.476562 -184.953125 122.613281 -182.609375 133.15625 -178.234375 C 143.707031 -173.867188 152.925781 -167.316406 160.8125 -158.578125 C 164.4375 -154.523438 167.898438 -149.460938 171.203125 -143.390625 C 174.515625 -137.316406 177.34375 -130.765625 179.6875 -123.734375 C 182.03125 -116.703125 183.46875 -109.828125 184 -103.109375 C 184.53125 -96.390625 183.835938 -90.257812 181.921875 -84.71875 C 181.492188 -83.445312 180.640625 -82.273438 179.359375 -81.203125 Z M 131.078125 -114.453125 C 131.722656 -115.953125 131.9375 -117.550781 131.71875 -119.25 C 131.507812 -121.8125 130.335938 -124.265625 128.203125 -126.609375 C 122.453125 -134.710938 114.992188 -140.679688 105.828125 -144.515625 C 96.660156 -148.347656 87.28125 -148.132812 77.6875 -143.875 C 73.425781 -141.957031 69.429688 -139.503906 65.703125 -136.515625 C 61.972656 -133.535156 58.507812 -130.335938 55.3125 -126.921875 C 54.457031 -126.078125 53.601562 -125.117188 52.75 -124.046875 C 51.894531 -122.984375 51.253906 -121.8125 50.828125 -120.53125 C 49.984375 -117.976562 50.410156 -115.632812 52.109375 -113.5 C 53.816406 -111.363281 55.953125 -110.296875 58.515625 -110.296875 L 123.734375 -110.296875 C 127.359375 -110.296875 129.804688 -111.679688 131.078125 -114.453125 Z M 131.078125 -114.453125 "/></g></g></g><g fill="#1b1b1b" fill-opacity="1"><g transform="translate(705.360746, 250.451031)"><g><path d="M 154.421875 -9.90625 C 149.734375 -16.726562 145.046875 -23.707031 140.359375 -30.84375 C 135.671875 -37.988281 130.875 -45.289062 125.96875 -52.75 C 124.050781 -55.738281 122.132812 -58.773438 120.21875 -61.859375 C 118.300781 -64.953125 116.273438 -67.992188 114.140625 -70.984375 C 112.648438 -73.535156 110.410156 -74.8125 107.421875 -74.8125 C 104.648438 -74.8125 102.304688 -73.535156 100.390625 -70.984375 C 98.472656 -67.992188 96.609375 -65.0625 94.796875 -62.1875 C 92.984375 -59.3125 91.117188 -56.488281 89.203125 -53.71875 C 85.148438 -47.320312 81.203125 -41.082031 77.359375 -35 C 73.523438 -28.925781 69.800781 -22.800781 66.1875 -16.625 C 62.34375 -10.445312 56.847656 -6.128906 49.703125 -3.671875 C 42.566406 -1.222656 35.003906 -0.101562 27.015625 -0.3125 C 19.023438 -0.53125 11.722656 -1.28125 5.109375 -2.5625 C 3.410156 -2.988281 2.023438 -3.625 0.953125 -4.46875 C -0.109375 -5.320312 -0.210938 -6.816406 0.640625 -8.953125 C 7.460938 -23.660156 15.722656 -37.351562 25.421875 -50.03125 C 35.117188 -62.71875 44.550781 -75.664062 53.71875 -88.875 L 54.671875 -90.484375 C 59.785156 -97.941406 63.617188 -104.066406 66.171875 -108.859375 C 68.734375 -113.660156 70.015625 -118.03125 70.015625 -121.96875 C 70.015625 -125.914062 68.734375 -130.285156 66.171875 -135.078125 C 63.617188 -139.878906 59.785156 -145.898438 54.671875 -153.140625 L 53.71875 -154.421875 C 46.675781 -164.441406 39.53125 -174.351562 32.28125 -184.15625 C 25.039062 -193.957031 18.332031 -204.1875 12.15625 -214.84375 C 11.300781 -216.34375 9.96875 -218.367188 8.15625 -220.921875 C 6.34375 -223.484375 4.957031 -226.148438 4 -228.921875 C 3.039062 -231.691406 3.304688 -233.925781 4.796875 -235.625 C 6.503906 -237.332031 9.007812 -237.921875 12.3125 -237.390625 C 15.613281 -236.859375 18.222656 -236.695312 20.140625 -236.90625 C 22.703125 -237.125 25.207031 -237.285156 27.65625 -237.390625 C 30.101562 -237.492188 32.5 -237.546875 34.84375 -237.546875 C 44.007812 -237.546875 51.363281 -235.785156 56.90625 -232.265625 C 62.445312 -228.753906 67.882812 -223.484375 73.21875 -216.453125 C 77.269531 -211.117188 81.101562 -205.734375 84.71875 -200.296875 C 88.34375 -194.867188 91.648438 -189.273438 94.640625 -183.515625 C 95.703125 -181.597656 97.296875 -179.253906 99.421875 -176.484375 C 101.554688 -173.710938 103.898438 -171.898438 106.453125 -171.046875 C 109.015625 -170.191406 111.46875 -171.472656 113.8125 -174.890625 C 119.351562 -183.410156 124.894531 -191.988281 130.4375 -200.625 C 135.988281 -209.257812 141.742188 -217.625 147.703125 -225.71875 C 148.984375 -227.425781 150.316406 -229.023438 151.703125 -230.515625 C 153.085938 -232.003906 154.523438 -233.285156 156.015625 -234.359375 C 159.003906 -236.273438 162.519531 -237.285156 166.5625 -237.390625 C 170.613281 -237.492188 174.820312 -237.28125 179.1875 -236.75 C 183.5625 -236.21875 187.347656 -235.953125 190.546875 -235.953125 C 191.828125 -235.953125 193.742188 -236.109375 196.296875 -236.421875 C 198.859375 -236.742188 201.363281 -236.851562 203.8125 -236.75 C 206.269531 -236.644531 208.03125 -236.054688 209.09375 -234.984375 C 210.15625 -233.921875 209.835938 -231.898438 208.140625 -228.921875 C 200.035156 -214.421875 191.453125 -200.242188 182.390625 -186.390625 C 173.335938 -172.535156 163.800781 -158.894531 153.78125 -145.46875 C 148.03125 -137.582031 145.472656 -129.75 146.109375 -121.96875 C 146.753906 -114.1875 149.738281 -106.460938 155.0625 -98.796875 C 164.4375 -85.148438 173.972656 -71.503906 183.671875 -57.859375 C 193.367188 -44.222656 202.164062 -30.265625 210.0625 -15.984375 C 211.332031 -13.847656 212.5 -11.710938 213.5625 -9.578125 C 214.632812 -7.453125 214.957031 -5.644531 214.53125 -4.15625 C 214.101562 -2.664062 212.1875 -1.707031 208.78125 -1.28125 C 206.21875 -1.0625 203.65625 -1.113281 201.09375 -1.4375 C 198.539062 -1.757812 195.988281 -1.921875 193.4375 -1.921875 C 187.894531 -1.921875 182.882812 -1.972656 178.40625 -2.078125 C 173.925781 -2.179688 169.660156 -2.34375 165.609375 -2.5625 C 164.117188 -2.769531 162.203125 -3.617188 159.859375 -5.109375 C 157.515625 -6.609375 155.703125 -8.207031 154.421875 -9.90625 Z M 154.421875 -9.90625 "/></g></g></g><g fill="#1b1b1b" fill-opacity="1"><g transform="translate(920.841026, 250.451031)"><g/></g></g></g></g><g clip-path="url(#b985fa913a)"><g clip-path="url(#3c7e6ffea2)"><g transform="matrix(1, 0, 0, 1, 1126, 796)"><g clip-path="url(#bcafd70486)"><g clip-path="url(#87789e7e6e)"><g clip-path="url(#4935c9a2aa)"><path fill="#1b1b1b" d="M 0.796875 0.492188 L 61.398438 0.492188 L 61.398438 61.09375 L 0.796875 61.09375 Z M 0.796875 0.492188 " fill-opacity="1" fill-rule="nonzero"/></g></g></g></g></g></g></svg>